<?xml version="1.0" standalone="no"?><!DOCTYPE svg PUBLIC "-//W3C//DTD SVG 1.1//EN" "http://www.w3.org/Graphics/SVG/1.1/DTD/svg11.dtd"><svg t="1673100258216" class="icon" viewBox="0 0 1024 1024" version="1.1" xmlns="http://www.w3.org/2000/svg" p-id="2735" xmlns:xlink="http://www.w3.org/1999/xlink" width="256" height="256"><path d="M570.368 131.072c-94.208 0-180.224 24.576-180.224 24.576S244.736 87.04 171.008 101.376c-76.8 41.984-5.12 94.208 29.696 131.072C125.952 296.96 78.848 382.976 71.68 474.112c-17.408 41.984-27.648 10.24-47.104 34.816-10.24 12.288-31.744 113.664-2.048 150.528 47.104 41.984 73.728-5.12 125.952 52.224 24.576 31.744 56.32 59.392 94.208 83.968 10.24 10.24-27.648 27.648-10.24 81.92 10.24 19.456 98.304 22.528 123.904 12.288 14.336-12.288 0-27.648 10.24-29.696 7.168 2.048 12.288 5.12 19.456 7.168 10.24 7.168-12.288 61.44 29.696 59.392 14.336 2.048 47.104 2.048 81.92 0 19.456-5.12 12.288-34.816 19.456-34.816 19.456 2.048 39.936 2.048 59.392 2.048 56.32 0 91.136-2.048 140.288-14.336 29.696-5.12-12.288 36.864 12.288 44.032 10.24-5.12 98.304 12.288 115.712-10.24 29.696-24.576 0-101.376 24.576-113.664 115.712-71.68 148.48-162.816 148.48-288.768 4.096-209.92-181.248-379.904-447.488-379.904zM264.192 382.976c-19.456 0-36.864-17.408-36.864-36.864s17.408-36.864 36.864-36.864 36.864 17.408 36.864 36.864-17.408 36.864-36.864 36.864z m622.592 0c-7.168 10.24-17.408 14.336-29.696 14.336-7.168 0-14.336-2.048-22.528-7.168-47.104-34.816-103.424-59.392-167.936-71.68-19.456-2.048-39.936-5.12-61.44-7.168-19.456 0-36.864-17.408-34.816-39.936 0-19.456 17.408-36.864 39.936-34.816 24.576 0 47.104 5.12 69.632 7.168 73.728 12.288 143.36 41.984 199.68 86.016 16.384 13.312 19.456 38.912 7.168 53.248z" fill="#FE765F" p-id="2736"></path><path d="M803.84 222.208m-128 0a128 128 0 1 0 256 0 128 128 0 1 0-256 0Z" fill="#F4C9A8" p-id="2737"></path><path d="M771.072 202.752h70.656c9.216 0 13.312 4.096 13.312 13.312s-4.096 13.312-13.312 13.312h-70.656c-9.216 0-13.312-4.096-13.312-13.312 0-8.192 5.12-13.312 13.312-13.312zM771.072 241.664h70.656c9.216 0 13.312 4.096 13.312 13.312s-4.096 13.312-13.312 13.312h-70.656c-9.216 0-13.312-4.096-13.312-13.312s5.12-13.312 13.312-13.312z" fill="#FFFFFF" p-id="2738"></path><path d="M820.224 219.136v70.656c0 9.216-4.096 13.312-13.312 13.312s-13.312-4.096-13.312-13.312v-70.656c0-9.216 4.096-13.312 13.312-13.312s13.312 5.12 13.312 13.312z" fill="#FFFFFF" p-id="2739"></path><path d="M784.384 162.816l30.72 30.72c6.144 6.144 6.144 12.288 0 19.456-6.144 6.144-12.288 6.144-19.456 0l-30.72-30.72c-6.144-6.144-6.144-12.288 0-19.456 7.168-6.144 13.312-6.144 19.456 0z" fill="#FFFFFF" p-id="2740"></path><path d="M846.848 182.272l-30.72 30.72c-6.144 6.144-12.288 6.144-19.456 0-6.144-6.144-6.144-12.288 0-19.456l30.72-30.72c6.144-6.144 12.288-6.144 19.456 0 6.144 6.144 6.144 12.288 0 19.456z" fill="#FFFFFF" p-id="2741"></path></svg>